<?xml version="1.0" encoding="UTF-8" standalone="no"?>
<svg
   xmlns:dc="http://purl.org/dc/elements/1.1/"
   xmlns:cc="http://creativecommons.org/ns#"
   xmlns:rdf="http://www.w3.org/1999/02/22-rdf-syntax-ns#"
   xmlns:svg="http://www.w3.org/2000/svg"
   xmlns="http://www.w3.org/2000/svg"
   xmlns:sodipodi="http://sodipodi.sourceforge.net/DTD/sodipodi-0.dtd"
   xmlns:inkscape="http://www.inkscape.org/namespaces/inkscape"
   viewBox="0 0 22 22"
   version="1.1"
   id="svg4"
   sodipodi:docname="system-lock-screen.svg"
   inkscape:version="0.92.2 5c3e80d, 2017-08-06">
  <metadata
     id="metadata10">
    <rdf:RDF>
      <cc:Work
         rdf:about="">
        <dc:format>image/svg+xml</dc:format>
        <dc:type
           rdf:resource="http://purl.org/dc/dcmitype/StillImage" />
      </cc:Work>
    </rdf:RDF>
  </metadata>
  <defs
     id="defs8" />
  <sodipodi:namedview
     pagecolor="#ffffff"
     bordercolor="#666666"
     borderopacity="1"
     objecttolerance="10"
     gridtolerance="10"
     guidetolerance="10"
     inkscape:pageopacity="0"
     inkscape:pageshadow="2"
     inkscape:window-width="3840"
     inkscape:window-height="2085"
     id="namedview6"
     showgrid="false"
     inkscape:zoom="10.727273"
     inkscape:cx="-6.3389824"
     inkscape:cy="3.4025422"
     inkscape:window-x="0"
     inkscape:window-y="0"
     inkscape:window-maximized="1"
     inkscape:current-layer="svg4" />
  <path
     d="m13.61028 10.25893h-4.4944v-1.11933c0-.99985.81342-1.81326 1.81326-1.81326.81639 0 1.53597.54935 1.7499 1.33592.0701.25773.33586.40982.59364.33978.25777-.0701.40988-.33588.33977-.59366-.32817-1.20666-1.43157-2.04941-2.68331-2.04941-1.53324 0-2.7806 1.24739-2.7806 2.7806v1.12974c-.21913.046-.38423.24067-.38423.47329v4.23327c0 .26669.21698.48367.48367.48367h5.3623c.26669 0 .48367-.21698.48367-.48367v-4.23327c0-.26672-.21698-.48367-.48367-.48367zm5.38972.74107c0 4.41828-3.58172 8-8 8s-8-3.58172-8-8 3.58172-8 8-8 8 3.58172 8 8z"
     fill="#f2f2f2"
     id="path2" />
  <path
     style="fill:#0074e4;fill-opacity:1;stroke-width:0.09322034"
     d="M 9.7164357,18.927896 C 6.493568,18.337201 3.9551232,15.965845 3.2075339,12.84743 c -0.2533894,-1.056961 -0.2533894,-2.637899 0,-3.6948601 C 3.5558938,7.699458 4.2450806,6.4718693 5.3277465,5.3760182 6.3730507,4.317984 7.4829015,3.6669349 8.9718363,3.2383602 9.5676996,3.066847 9.9088571,3.0339767 11.037288,3.0393552 c 1.187519,0.00566 1.451418,0.036738 2.17273,0.2558743 3.183567,0.9671729 5.352766,3.5470736 5.753207,6.8424825 0.404321,3.327339 -1.531505,6.741394 -4.615327,8.139665 -1.032558,0.468184 -1.860409,0.654921 -3.077559,0.694196 -0.615254,0.01985 -1.3145107,1.87e-4 -1.5539033,-0.04368 z M 13.885996,15.34226 c 0.170824,-0.124908 0.180953,-0.263617 0.180953,-2.477853 0,-2.214236 -0.01013,-2.352945 -0.180953,-2.477854 -0.144766,-0.105856 -0.643432,-0.132316 -2.493644,-0.132316 H 9.079661 V 9.5520906 c 0,-0.7836346 0.1522188,-1.2507309 0.5409621,-1.6599892 C 10.526074,6.9388677 12.035971,7.2104696 12.60906,8.4296648 12.834709,8.9097119 13.043384,9.0548405 13.344492,8.941141 13.827996,8.7585678 13.502681,7.7476963 12.746859,7.0840753 11.961694,6.3946922 10.802586,6.2071682 9.8526131,6.6158356 8.7948383,7.0708782 8.229783,8.007745 8.1643625,9.4149709 8.1304368,10.144728 8.0925775,10.321733 7.9488908,10.422376 c -0.1623322,0.113702 -0.1743145,0.281566 -0.1743145,2.442031 0,2.29168 0.00252,2.321704 0.2071827,2.465053 0.2949064,0.206561 5.623456,0.218112 5.904237,0.0128 z"
     id="path12"
     inkscape:connector-curvature="0" />
  <path
     style="fill:#00c8ff;fill-opacity:1;stroke-width:0.09322034"
     d="M 9.6611285,18.866821 C 7.3460045,18.481148 5.0583258,16.804022 3.9644254,14.690495 1.5930683,10.108792 4.0628728,4.5966756 9.0861495,3.2598172 9.4195021,3.1711012 10.070523,3.1247166 10.992552,3.123988 c 1.622682,-0.00128 2.319845,0.1471303 3.528055,0.7510547 0.961121,0.4804162 1.474368,0.8656088 2.271438,1.7047172 1.518566,1.5986542 2.264732,3.6511444 2.139933,5.8863421 -0.113245,2.028277 -0.984607,3.876311 -2.511338,5.326196 -1.263738,1.200129 -2.772457,1.904744 -4.458689,2.082336 -1.022935,0.107733 -1.619377,0.105708 -2.3008225,-0.0078 z M 13.945778,15.35339 c 0.175488,-0.175509 0.175612,-4.802272 9.3e-5,-4.977966 -0.09132,-0.09144 -0.706722,-0.128673 -2.506715,-0.151682 l -2.3856774,-0.0305 0.059242,-0.7008308 C 9.184904,8.6384859 9.4207522,8.0745308 9.8376104,7.7590749 10.76799,7.0550134 11.92577,7.3367389 12.557953,8.4210227 12.873133,8.9616022 13.146985,9.1105549 13.456325,8.9096615 13.633213,8.7947847 13.615502,8.2660733 13.422246,7.8923566 12.973961,7.0253892 12.127754,6.4794432 11.119674,6.406782 10.302727,6.3478976 9.6890484,6.5545582 9.0950957,7.0885728 8.5027387,7.6211526 8.2656698,8.1820376 8.1462809,9.3333885 8.088587,9.8897709 7.9982859,10.301383 7.913322,10.395267 7.7982287,10.522444 7.7745769,10.947644 7.7745769,12.88955 c 0,1.771699 0.028336,2.358724 0.1165254,2.413971 0.2525109,0.158188 1.0566168,0.201781 3.4445067,0.186737 1.900996,-0.01198 2.517623,-0.04431 2.610169,-0.136868 z"
     id="path8"
     inkscape:connector-curvature="0" />
</svg>
