<?xml version="1.0" encoding="UTF-8" standalone="no"?>
<svg
   xmlns:dc="http://purl.org/dc/elements/1.1/"
   xmlns:cc="http://creativecommons.org/ns#"
   xmlns:rdf="http://www.w3.org/1999/02/22-rdf-syntax-ns#"
   xmlns:svg="http://www.w3.org/2000/svg"
   xmlns="http://www.w3.org/2000/svg"
   xmlns:sodipodi="http://sodipodi.sourceforge.net/DTD/sodipodi-0.dtd"
   xmlns:inkscape="http://www.inkscape.org/namespaces/inkscape"
   viewBox="0 0 22 22"
   version="1.1"
   id="svg4"
   sodipodi:docname="system-shutdown.svg"
   inkscape:version="0.92.2 5c3e80d, 2017-08-06">
  <metadata
     id="metadata10">
    <rdf:RDF>
      <cc:Work
         rdf:about="">
        <dc:format>image/svg+xml</dc:format>
        <dc:type
           rdf:resource="http://purl.org/dc/dcmitype/StillImage" />
      </cc:Work>
    </rdf:RDF>
  </metadata>
  <defs
     id="defs8" />
  <sodipodi:namedview
     pagecolor="#ffffff"
     bordercolor="#666666"
     borderopacity="1"
     objecttolerance="10"
     gridtolerance="10"
     guidetolerance="10"
     inkscape:pageopacity="0"
     inkscape:pageshadow="2"
     inkscape:window-width="2068"
     inkscape:window-height="997"
     id="namedview6"
     showgrid="false"
     inkscape:zoom="10.727273"
     inkscape:cx="11.372882"
     inkscape:cy="11"
     inkscape:window-x="0"
     inkscape:window-y="0"
     inkscape:window-maximized="0"
     inkscape:current-layer="svg4" />
  <path
     d="m19 11a7.9999977 7.9999977 0 0 1 -7.999994 8 7.9999977 7.9999977 0 0 1 -8.000006-8 7.9999977 7.9999977 0 0 1 8.000006-8 7.9999977 7.9999977 0 0 1 7.999994 8zm-3.67212-1.756251c-.337874-.675583-.81304-1.242155-1.425737-1.699549-.176229-.134286-.375572-.186749-.598012-.157389-.222445.02937-.398685.134286-.528794.314698-.134286.176222-.185657.374491-.154217.59484.03131.22044.135366.397668.3116.531948.41112.310532.729206.690354.953577 1.139406.224526.448977.33672.927463.33672 1.43516 0 .436526-.08499.852977-.254897 1.249577-.169977.396583-.39976.739634-.689337 1.029217-.289583.289497-.632554.519274-1.029143.689263-.396594.169977-.813114.25504-1.249571.25504-.436383 0-.852903-.08506-1.2494976-.25504-.3965885-.169983-.7396343-.39976-1.0292228-.689263-.2895029-.289583-.51928-.63264-.6892572-1.029217-.1699828-.396589-.2549714-.813046-.2549714-1.249577 0-.507697.1122629-.986109.3367943-1.43516.2245257-.448972.5423828-.828794.9536571-1.139406.1762343-.134354.2800743-.311577.3116-.531948.0314286-.220275-.0199428-.418618-.1542171-.59484-.1301086-.180418-.3052629-.285338-.5256229-.314698-.2203543-.029371-.4207714.023086-.6011828.157389-.6127715.457394-1.0879372 1.02396-1.4258057 1.699549-.3378743.675668-.5067715 1.395377-.5067715 2.159114 0 .65472.1280286 1.279931.3839943 1.875868.2560514.595938.6001086 1.109955 1.0323886 1.542252.4322114.432206.94632.776406 1.5422457 1.032234.5959371.256046 1.221223.384149 1.875869.384149.654645 0 1.279937-.128103 1.875868-.384149.595926-.255897 1.110034-.600028 1.54224-1.032234.432206-.432212.776263-.94632 1.032309-1.542252.255977-.595931.383925-1.221217.383925-1.875868 0-.763737-.168668-1.483446-.506537-2.159114zm-4.327926 2.159194c.218189 0 .407177-.07966.566492-.239206.159463-.159394.23936-.348303.23936-.566486v-4.0288c0-.218274-.07981-.407102-.23936-.566491-.15932-.159549-.348223-.23928-.566492-.23928-.218263 0-.407097.07981-.566565.23928-.159469.159394-.2392.348297-.2392.566491v4.0288c0 .218178.07973.407098.2392.566486.159468.159554.348377.239206.566565.239206z"
     fill="#f2f2f2"
     id="path2" />
  <path
     style="fill:#800000;fill-opacity:1;stroke-width:0.09322034"
     d="M 9.7164357,18.927896 C 6.493568,18.337201 3.9551232,15.965845 3.2075339,12.84743 c -0.2533894,-1.056961 -0.2533894,-2.637899 0,-3.6948601 C 3.9003986,6.2624273 6.1053018,4.0289404 9.079661,3.2043183 9.5402403,3.0766257 10.009842,3.0374634 11.037288,3.0410627 c 1.190536,0.00417 1.449586,0.034474 2.17273,0.2541668 3.183567,0.9671729 5.352766,3.5470736 5.753207,6.8424825 0.404321,3.327339 -1.531505,6.741394 -4.615327,8.139665 -1.032558,0.468184 -1.860409,0.654921 -3.077559,0.694196 -0.615254,0.01985 -1.3145107,1.87e-4 -1.5539033,-0.04368 z m 2.8589883,-2.993634 c 2.823633,-1.049248 4.028928,-4.179419 2.632901,-6.8376857 -0.340672,-0.6486974 -1.233974,-1.5834862 -1.601315,-1.6756827 -0.511724,-0.1284349 -1.077337,0.4018109 -0.953772,0.894135 0.03293,0.1312026 0.28157,0.4638891 0.552532,0.7393031 0.759235,0.7717069 0.954399,1.2458263 0.954399,2.3185493 0,0.759321 -0.03448,0.958699 -0.241844,1.398305 -0.306195,0.649137 -0.884145,1.226282 -1.560696,1.558522 -0.45901,0.225411 -0.637548,0.259214 -1.366951,0.258804 -0.663712,-3.73e-4 -0.930849,-0.04281 -1.2787247,-0.203153 C 9.0958263,14.10138 8.3825025,13.40147 8.0786765,12.782796 7.8554153,12.328174 7.8211864,12.146946 7.8211864,11.419492 c 0,-1.055317 0.2514677,-1.6518968 1.0159937,-2.4103373 C 9.4031529,8.4476868 9.4906576,8.1527208 9.2100843,7.7521463 8.8328443,7.2135608 8.2456907,7.3361945 7.5055368,8.1081603 4.9823422,10.739803 6.3118162,15.170183 9.8982888,16.081842 c 0.7370182,0.187345 1.9567642,0.120106 2.6771352,-0.14758 z m -1.038136,-4.807143 0.245763,-0.245763 V 8.6029987 6.3246415 l -0.27249,-0.2724903 c -0.353584,-0.353584 -0.686182,-0.353584 -1.039766,0 l -0.27249,0.2724903 v 2.2516297 2.2516298 l 0.27249,0.27249 c 0.351008,0.351007 0.732649,0.360572 1.066493,0.02673 z"
     id="path3701"
     inkscape:connector-curvature="0" />
  <path
     style="fill:#d40000;fill-opacity:1;stroke-width:0.09322034"
     d="M 9.1355938,18.75074 C 6.4560542,17.981648 4.4389345,16.189514 3.5457723,13.784395 3.0684797,12.499136 2.9397909,10.731112 3.2223815,9.3414087 3.7352095,6.8194616 5.6238557,4.6058483 8.1318357,3.5872166 9.1885162,3.1580392 9.9475776,3.0443167 11.40864,3.0962859 c 1.051506,0.037402 1.33657,0.083052 2.035813,0.3260144 1.27752,0.4438937 2.149775,0.9869104 3.112827,1.9378689 1.006346,0.9937102 1.583901,1.9189408 2.00758,3.2161017 0.242125,0.7413036 0.296935,1.079074 0.336397,2.0731021 0.02979,0.750296 0.0053,1.400355 -0.06659,1.765615 -0.49916,2.53718 -2.214082,4.751908 -4.49362,5.803263 -1.094763,0.50492 -1.656217,0.621762 -3.201213,0.666193 -1.1700149,0.03365 -1.4972307,0.01182 -2.0042372,-0.133704 z m 2.9085472,-2.635284 c 1.35292,-0.287244 2.689536,-1.347967 3.288882,-2.610018 0.470351,-0.990427 0.598454,-1.948591 0.397136,-2.970451 C 15.519833,9.4673974 15.184924,8.8367946 14.405221,8.040254 13.849015,7.472035 13.694777,7.3644065 13.436695,7.3644065 c -0.377599,0 -0.851949,0.4325265 -0.851949,0.7768311 0,0.2219096 0.525784,0.9788597 0.884942,1.2740164 0.09358,0.076907 0.267939,0.3495762 0.387457,0.605932 0.30072,0.645019 0.315334,2.081258 0.02741,2.69379 -0.276725,0.588706 -0.735414,1.081857 -1.34942,1.450799 -0.488305,0.293412 -0.614822,0.325968 -1.400307,0.360322 -0.775107,0.0339 -0.91705,0.01325 -1.3866143,-0.201723 C 9.1280485,14.040454 8.4058899,13.332415 8.0974531,12.705891 7.913501,12.332231 7.8780994,12.120167 7.8827041,11.419491 7.8894784,10.388656 8.0497472,9.988176 8.7967023,9.1355929 9.3784998,8.4715226 9.4907541,8.2101905 9.3381106,7.8751745 9.0230203,7.1836265 8.2897029,7.2548651 7.5109655,8.0526735 c -1.8822372,1.928333 -1.749533,5.1291645 0.2879404,6.9451345 1.1627685,1.036358 2.7097911,1.443646 4.2452351,1.117648 z M 11.577527,11.12239 11.838984,10.871898 V 8.5671169 6.2623358 L 11.55217,6.0209983 C 11.390612,5.8850557 11.149473,5.7796607 11.000001,5.7796607 c -0.149473,0 -0.390611,0.105395 -0.55217,0.2413376 l -0.286813,0.2413375 v 2.3139351 2.3139351 l 0.286813,0.241337 c 0.381124,0.320695 0.788856,0.317392 1.129696,-0.0092 z"
     id="path8"
     inkscape:connector-curvature="0" />
</svg>
